<svg width="512" height="512" viewBox="0 0 512 512" fill="none" xmlns="http://www.w3.org/2000/svg" role="img" aria-labelledby="title desc">
  <title id="title">TindaJuan App Icon</title>
  <desc id="desc">A rounded green storefront app icon with TJ monogram and checkmark.</desc>
  <defs>
    <linearGradient id="greenGradient" x1="48" y1="48" x2="464" y2="464" gradientUnits="userSpaceOnUse">
      <stop stop-color="#22C55E"/>
      <stop offset="1" stop-color="#15803D"/>
    </linearGradient>
  </defs>
  <rect width="512" height="512" rx="120" fill="url(#greenGradient)"/>

  <!-- Store awning base -->
  <path d="M116 164C116 151.85 125.85 142 138 142H374C386.15 142 396 151.85 396 164V200H116V164Z" fill="#FFFDF7"/>

  <!-- Awning stripes -->
  <path d="M116 200H172V228C172 243.464 159.464 256 144 256C128.536 256 116 243.464 116 228V200Z" fill="#FACC15"/>
  <path d="M172 200H228V228C228 243.464 215.464 256 200 256C184.536 256 172 243.464 172 228V200Z" fill="#F97316"/>
  <path d="M228 200H284V228C284 243.464 271.464 256 256 256C240.536 256 228 243.464 228 228V200Z" fill="#FACC15"/>
  <path d="M284 200H340V228C340 243.464 327.464 256 312 256C296.536 256 284 243.464 284 228V200Z" fill="#F97316"/>
  <path d="M340 200H396V228C396 243.464 383.464 256 368 256C352.536 256 340 243.464 340 228V200Z" fill="#FACC15"/>

  <!-- Store body -->
  <path d="M140 252H372V386C372 398.15 362.15 408 350 408H162C149.85 408 140 398.15 140 386V252Z" fill="#FFFDF7"/>

  <!-- TJ monogram -->
  <path d="M170 282H254V319H231V408H189V319H170V282Z" fill="#16A34A"/>
  <path d="M256 282H320V408H270V364C270 387.196 251.196 406 228 406H205V361H228C234.627 361 240 355.627 240 349V282H256Z" fill="#14532D" fill-opacity="0.94"/>

  <!-- Counter line -->
  <path d="M166 386H346" stroke="#F97316" stroke-width="20" stroke-linecap="round"/>

  <!-- Check mark -->
  <path d="M335 320L356 341L399 298" stroke="#16A34A" stroke-width="24" stroke-linecap="round" stroke-linejoin="round"/>
</svg>
